<svg width="313" height="170" viewBox="0 0 313 170" fill="none" xmlns="http://www.w3.org/2000/svg">
<g clip-path="url(#clip0_317_463)">
<path d="M157.317 170C242.088 170 310.809 165.451 310.809 159.838C310.809 154.226 242.088 149.677 157.317 149.677C72.5451 149.677 3.82422 154.226 3.82422 159.838C3.82422 165.451 72.5451 170 157.317 170Z" fill="#F2F2F2"/>
<path d="M151.434 48.5966C126.426 48.5966 108.47 64.6411 108.47 102.078C108.47 144.507 126.426 155.738 151.434 155.738C176.442 155.738 195.467 143.437 195.467 102.078C195.467 57.8668 176.442 48.5966 151.434 48.5966ZM151.598 141.655C134.277 141.655 125.228 131.493 125.228 102.106C125.228 76.1758 134.647 62.5019 151.969 62.5019C169.29 62.5019 178.71 71.4838 178.71 102.106C178.709 130.752 168.919 141.655 151.598 141.655Z" fill="#2F2E41"/>
<path d="M93.4957 126.145H83.1559V95.697C83.1559 94.0798 82.5134 92.5288 81.3699 91.3852C80.2263 90.2417 78.6754 89.5993 77.0581 89.5993H74.6353C73.8346 89.5993 73.0416 89.757 72.3018 90.0634C71.562 90.3699 70.8898 90.819 70.3236 91.3852C69.7573 91.9515 69.3082 92.6237 69.0017 93.3635C68.6953 94.1033 68.5376 94.8962 68.5376 95.697V126.145H39.3725C38.7726 126.145 38.1828 125.99 37.6604 125.695C37.138 125.4 36.7007 124.975 36.391 124.461C36.0813 123.947 35.9097 123.362 35.8928 122.762C35.8759 122.162 36.0144 121.568 36.2947 121.038L67.1626 62.6145C67.5474 61.8861 67.7807 61.0873 67.8483 60.2663C67.9159 59.4453 67.8164 58.6191 67.5559 57.8375C67.2954 57.056 66.8792 56.3354 66.3325 55.7191C65.7857 55.1029 65.1198 54.6038 64.3749 54.2521L62.5527 53.3916C61.1378 52.7234 59.5201 52.6248 58.0345 53.116C56.5489 53.6073 55.3089 54.6508 54.5713 56.0308L16.9237 126.458C16.2827 127.657 15.9473 128.996 15.9473 130.356C15.9473 131.441 16.1611 132.517 16.5767 133.52C16.9922 134.523 17.6012 135.435 18.369 136.202C19.1368 136.97 20.0483 137.579 21.0515 137.995C22.0547 138.41 23.1299 138.624 24.2157 138.624H68.5376V157.877C68.5376 158.837 68.7266 159.788 69.0939 160.675C69.4613 161.561 69.9996 162.367 70.6784 163.046C71.3571 163.725 72.1628 164.263 73.0496 164.63C73.9364 164.998 74.8869 165.187 75.8467 165.187H75.8467C76.8066 165.187 77.757 164.998 78.6438 164.63C79.5306 164.263 80.3364 163.725 81.0151 163.046C81.6938 162.367 82.2322 161.561 82.5995 160.675C82.9668 159.788 83.1559 158.837 83.1559 157.877V138.624H93.4957C95.1505 138.624 96.7375 137.967 97.9077 136.797C99.0778 135.626 99.7352 134.039 99.7352 132.385C99.7352 130.73 99.0778 129.143 97.9077 127.973C96.7376 126.802 95.1505 126.145 93.4957 126.145Z" fill="#52CC6D"/>
<path d="M284.96 126.145H274.62V95.697C274.62 94.0798 273.978 92.5288 272.834 91.3852C271.691 90.2417 270.14 89.5993 268.522 89.5993H266.1C265.299 89.5993 264.506 89.757 263.766 90.0634C263.026 90.3699 262.354 90.819 261.788 91.3852C261.222 91.9515 260.773 92.6237 260.466 93.3635C260.16 94.1033 260.002 94.8962 260.002 95.697V126.145H230.837C230.237 126.145 229.647 125.99 229.125 125.695C228.602 125.4 228.165 124.975 227.855 124.461C227.546 123.947 227.374 123.362 227.357 122.762C227.34 122.162 227.479 121.568 227.759 121.038L258.627 62.6145C259.012 61.8861 259.245 61.0873 259.313 60.2663C259.38 59.4453 259.281 58.6191 259.02 57.8375C258.76 57.056 258.344 56.3354 257.797 55.7191C257.25 55.1029 256.584 54.6038 255.839 54.2521L254.017 53.3916C252.602 52.7234 250.984 52.6248 249.499 53.116C248.013 53.6073 246.773 54.6508 246.036 56.0308L208.388 126.458C207.747 127.657 207.412 128.996 207.412 130.356C207.412 132.549 208.283 134.652 209.833 136.202C211.384 137.753 213.487 138.624 215.68 138.624H260.002V157.877C260.002 159.816 260.772 161.675 262.143 163.046C263.513 164.417 265.373 165.187 267.311 165.187C269.25 165.187 271.109 164.417 272.479 163.046C273.85 161.675 274.62 159.816 274.62 157.877V138.624H284.96C286.615 138.624 288.202 137.967 289.372 136.797C290.542 135.626 291.2 134.039 291.2 132.385C291.2 130.73 290.542 129.143 289.372 127.973C288.202 126.802 286.615 126.145 284.96 126.145Z" fill="#52CC6D"/>
<path d="M96.3478 122.58H86.008V92.1316C86.008 91.3308 85.8502 90.5379 85.5438 89.798C85.2374 89.0582 84.7882 88.386 84.222 87.8198C83.6557 87.2536 82.9835 86.8044 82.2437 86.498C81.5039 86.1915 80.711 86.0338 79.9102 86.0338H77.4874C75.8702 86.0338 74.3192 86.6762 73.1756 87.8198C72.0321 88.9633 71.3896 90.5143 71.3896 92.1316V122.58H42.2246C41.6246 122.58 41.0348 122.425 40.5124 122.129C39.99 121.834 39.5528 121.409 39.2431 120.895C38.9334 120.381 38.7618 119.796 38.7449 119.196C38.728 118.597 38.8664 118.003 39.1467 117.472L70.0147 59.0491C70.3995 58.3207 70.6328 57.5219 70.7004 56.7009C70.768 55.8798 70.6685 55.0536 70.408 54.2721C70.1474 53.4906 69.7312 52.7699 69.1845 52.1537C68.6378 51.5374 67.9719 51.0384 67.227 50.6866L65.4047 49.8261C63.9898 49.158 62.3722 49.0593 60.8866 49.5506C59.4009 50.0418 58.161 51.0854 57.4233 52.4653L19.7758 122.892C19.1347 124.091 18.7993 125.43 18.7993 126.79V126.79C18.7993 128.983 19.6705 131.086 21.2211 132.637C22.7717 134.188 24.8748 135.059 27.0678 135.059H71.3896V154.312C71.3896 155.272 71.5787 156.222 71.946 157.109C72.3133 157.996 72.8517 158.802 73.5304 159.48C74.2092 160.159 75.0149 160.698 75.9017 161.065C76.7885 161.432 77.7389 161.621 78.6988 161.621H78.6988C80.6373 161.621 82.4964 160.851 83.8671 159.48C85.2379 158.11 86.0079 156.251 86.0079 154.312V135.059H96.3477C97.1671 135.059 97.9785 134.897 98.7355 134.584C99.4925 134.27 100.18 133.811 100.76 133.231C101.339 132.652 101.799 131.964 102.112 131.207C102.426 130.45 102.587 129.639 102.587 128.819V128.819C102.587 128 102.426 127.188 102.112 126.431C101.799 125.674 101.339 124.987 100.76 124.407C100.18 123.828 99.4925 123.368 98.7355 123.055C97.9785 122.741 97.1671 122.58 96.3478 122.58V122.58Z" stroke="#3F3D56" stroke-miterlimit="10"/>
<path d="M290.308 122.58H279.968V92.1316C279.968 90.5143 279.326 88.9633 278.182 87.8198C277.039 86.6762 275.488 86.0338 273.871 86.0338H271.448C270.647 86.0338 269.854 86.1915 269.114 86.498C268.374 86.8044 267.702 87.2536 267.136 87.8198C266.57 88.386 266.121 89.0582 265.814 89.798C265.508 90.5379 265.35 91.3308 265.35 92.1316V122.58H236.185C235.585 122.58 234.995 122.425 234.473 122.129C233.95 121.834 233.513 121.409 233.204 120.895C232.894 120.381 232.722 119.796 232.705 119.196C232.688 118.597 232.827 118.003 233.107 117.472L263.975 59.0491C264.36 58.3207 264.593 57.5219 264.661 56.7009C264.728 55.8798 264.629 55.0536 264.368 54.2721C264.108 53.4906 263.692 52.7699 263.145 52.1537C262.598 51.5374 261.932 51.0384 261.187 50.6866L259.365 49.8261C257.95 49.158 256.333 49.0593 254.847 49.5506C253.361 50.0418 252.121 51.0854 251.384 52.4653L213.736 122.892C213.095 124.091 212.76 125.43 212.76 126.79C212.76 128.983 213.631 131.086 215.182 132.637C216.732 134.188 218.835 135.059 221.028 135.059H265.35V154.312C265.35 156.251 266.12 158.11 267.491 159.48C268.862 160.851 270.721 161.621 272.659 161.621V161.621C274.598 161.621 276.457 160.851 277.828 159.48C279.198 158.11 279.968 156.251 279.968 154.312V135.059H290.308C291.128 135.059 291.939 134.897 292.696 134.584C293.453 134.27 294.141 133.811 294.72 133.231C295.3 132.652 295.759 131.964 296.073 131.207C296.386 130.45 296.548 129.639 296.548 128.819V128.819C296.548 127.164 295.89 125.577 294.72 124.407C293.55 123.237 291.963 122.58 290.308 122.58V122.58Z" stroke="#3F3D56" stroke-miterlimit="10"/>
<path d="M157.138 45.3877C132.13 45.3877 114.175 61.4322 114.175 98.8694C114.175 141.298 132.13 152.529 157.138 152.529C182.147 152.529 201.172 140.229 201.172 98.8694C201.172 54.6579 182.147 45.3877 157.138 45.3877ZM157.303 138.446C139.982 138.446 130.932 128.284 130.932 98.8968C130.932 72.967 140.352 59.293 157.673 59.293C174.994 59.293 184.414 68.2749 184.414 98.8968C184.414 127.543 174.624 138.446 157.303 138.446V138.446Z" stroke="#3F3D56" stroke-miterlimit="10"/>
<path d="M137.093 9.06452C139.166 9.06452 140.847 7.3838 140.847 5.31052C140.847 3.23725 139.166 1.55653 137.093 1.55653C135.02 1.55653 133.339 3.23725 133.339 5.31052C133.339 7.3838 135.02 9.06452 137.093 9.06452Z" fill="#2F2E41"/>
<path d="M146.249 27.2851C152.064 27.2851 156.779 21.1771 156.779 13.6426C156.779 6.10798 152.064 0 146.249 0C140.434 0 135.72 6.10798 135.72 13.6426C135.72 21.1771 140.434 27.2851 146.249 27.2851Z" fill="#2F2E41"/>
<path opacity="0.1" d="M146.249 23.1649C140.974 23.1649 136.606 18.1395 135.839 11.5824C135.759 12.2663 135.72 12.9541 135.72 13.6426C135.72 21.1771 140.434 27.2851 146.249 27.2851C152.064 27.2851 156.779 21.1771 156.779 13.6426C156.779 12.9541 156.739 12.2663 156.659 11.5824C155.893 18.1395 151.524 23.1649 146.249 23.1649Z" fill="black"/>
<path d="M167.676 53.5954C167.45 54.5246 166.475 55.2688 165.395 55.7888C163.125 56.8819 160.324 57.2081 157.608 57.3176C156.915 57.3597 156.22 57.3469 155.529 57.2792C154.191 57.1497 152.935 56.5724 151.965 55.6406C151.895 55.5955 151.839 55.5335 151.8 55.4606C151.761 55.3876 151.741 55.306 151.743 55.2233C151.744 55.1407 151.766 55.0597 151.807 54.988C151.848 54.9162 151.907 54.8561 151.977 54.8131C153.423 53.2247 155.836 52.2507 158.267 51.5494C160.111 51.0177 163.325 49.6403 165.335 49.8262C167.282 50.0062 167.961 52.4221 167.676 53.5954Z" fill="#3F3D56"/>
<path opacity="0.1" d="M167.676 53.5954C167.45 54.5246 166.475 55.2688 165.395 55.7888C163.125 56.8819 160.324 57.2081 157.608 57.3176C156.915 57.3597 156.22 57.3469 155.529 57.2792C154.191 57.1497 152.935 56.5724 151.965 55.6406C151.895 55.5955 151.839 55.5335 151.8 55.4606C151.761 55.3876 151.741 55.306 151.743 55.2233C151.744 55.1407 151.766 55.0597 151.807 54.988C151.848 54.9162 151.907 54.8561 151.977 54.8131C153.423 53.2247 155.836 52.2507 158.267 51.5494C160.111 51.0177 163.325 49.6403 165.335 49.8262C167.282 50.0062 167.961 52.4221 167.676 53.5954Z" fill="black"/>
<path d="M138.811 46.6504C138.118 48.0086 137.992 49.5863 138.462 51.0369C138.94 52.4765 139.834 53.7421 141.031 54.6732C143.968 57.0278 148.011 57.3518 151.775 57.3191C155.074 57.2904 158.369 57.0646 161.641 56.6429C162.738 56.5457 163.815 56.2955 164.842 55.8996C166.071 55.368 167.151 54.393 167.588 53.1278C168.025 51.8626 167.715 50.3133 166.676 49.4689C165.763 48.727 164.505 48.625 163.331 48.5544L156.612 48.1507C157.276 47.479 158.16 47.0991 158.968 46.6108C160.041 45.9629 160.753 44.8752 161.533 43.8945C162.734 42.4587 164.041 41.1148 165.443 39.8741C165.662 41.1283 166.455 42.1582 167.389 43.0236C168.323 43.889 169.399 44.5858 170.37 45.4097C172.72 47.4054 174.413 50.114 176.885 51.9569C178.586 51.51 180.176 50.7163 181.555 49.6255L180.594 47.885C180.514 47.7059 180.39 47.5503 180.232 47.4332C179.96 47.2659 179.61 47.3521 179.294 47.3047C178.45 47.1782 178.081 46.2037 177.75 45.417C176.841 43.2575 175.1 41.5819 173.613 39.7709C172.515 38.434 171.542 37.0001 170.704 35.4868C170.205 34.5843 169.747 33.6446 169.07 32.8671C168.392 32.0895 167.442 31.4782 166.41 31.476C165.499 31.4741 164.658 31.9368 163.875 32.4023C161.488 33.8199 159.192 35.3844 156.999 37.0867C155.851 37.9776 154.711 38.9189 153.365 39.4652C152.798 39.6952 152.201 39.8524 151.657 40.1322C150.704 40.6223 149.982 41.4516 149.204 42.1877C146.428 44.8133 142.629 46.5144 138.811 46.6504Z" fill="#3F3D56"/>
<path d="M152.858 27.9627C152.827 28.7653 152.656 29.5563 152.353 30.3002C152.2 30.6713 151.972 31.0068 151.683 31.2858C151.394 31.5648 151.051 31.7813 150.675 31.9218C150.141 32.0649 149.581 32.083 149.039 31.9749C148.566 31.9255 148.11 31.7703 147.706 31.5207C147.076 31.0877 146.762 30.3149 146.647 29.5586C146.533 28.8032 146.584 28.0314 146.511 27.2705C146.44 26.6559 146.323 26.0475 146.161 25.4503C146.112 25.2516 146.061 25.0538 146.012 24.856C145.963 24.6583 145.916 24.4605 145.872 24.2627C145.832 24.0768 145.794 23.8901 145.762 23.7024C145.735 23.544 145.712 23.3846 145.694 23.2244C145.678 22.7494 145.599 22.2786 145.459 21.8245C145.327 21.5299 145.163 21.2513 144.968 20.994C144.885 20.875 144.804 20.7559 144.73 20.6323C144.516 20.3111 144.416 19.9268 144.447 19.5418C144.456 19.4823 144.47 19.4238 144.49 19.367C144.498 19.345 144.506 19.323 144.515 19.302C144.597 19.2796 144.673 19.2375 144.735 19.1792C144.798 19.121 144.845 19.0484 144.873 18.9677C144.904 18.7945 144.89 18.6161 144.83 18.4504C144.761 18.219 144.668 17.9958 144.551 17.7848C144.474 17.6456 144.213 17.3947 144.211 17.2354C144.207 16.9149 144.834 16.6567 145.087 16.5304C145.861 16.1427 146.725 15.9677 147.589 16.0231C148.143 16.0607 148.743 16.231 149.049 16.6952C149.324 17.1136 149.287 17.6557 149.404 18.1419C149.417 18.2125 149.447 18.279 149.491 18.335C149.551 18.3895 149.626 18.424 149.706 18.4339C149.842 18.4609 149.981 18.4665 150.118 18.4504H150.119C150.156 18.4475 150.192 18.4423 150.227 18.4348C150.441 18.3954 150.644 18.3081 150.819 18.1794C150.932 18.1492 151.047 18.1245 151.162 18.1052C151.167 18.1048 151.172 18.1038 151.176 18.1025C151.635 19.5501 151.694 21.102 152.07 22.5761C152.255 23.3095 152.522 24.0338 152.559 24.7883C152.562 24.8212 152.563 24.8551 152.564 24.889C152.57 25.1316 152.55 25.3761 152.56 25.6178C152.564 25.7266 152.576 25.835 152.597 25.9419C152.638 26.1138 152.689 26.2832 152.75 26.4492L152.753 26.4574C152.77 26.5105 152.787 26.5645 152.8 26.6186C152.81 26.6579 152.819 26.6964 152.827 26.7358L152.828 26.7385C152.896 27.1431 152.906 27.5552 152.858 27.9627Z" fill="#FBBEBE"/>
<path d="M146.432 18.4953C149.416 18.4953 151.835 16.0767 151.835 13.0932C151.835 10.1097 149.416 7.69112 146.432 7.69112C143.449 7.69112 141.03 10.1097 141.03 13.0932C141.03 16.0767 143.449 18.4953 146.432 18.4953Z" fill="#FBBEBE"/>
<path d="M180.729 42.5263C180.573 41.0525 180.049 39.6415 179.206 38.4226C179.346 39.2558 179.486 40.0887 179.627 40.9213C179.452 40.9719 179.266 40.9703 179.092 40.9168C178.918 40.8633 178.763 40.7602 178.647 40.6201C178.42 40.336 178.246 40.0131 178.133 39.6669C177.52 38.1433 176.717 36.7028 175.745 35.3791C172.306 35.0925 168.906 33.6669 165.882 32.0051C162.856 30.3442 160.025 28.3527 157.041 26.6213C156.523 26.3085 155.984 26.0331 155.427 25.7973C154.493 25.4228 153.445 25.2287 152.56 24.7883C152.5 24.759 152.441 24.7278 152.382 24.6958C152.182 24.587 151.992 24.4598 151.816 24.3158C151.721 24.2384 151.63 24.1552 151.545 24.0668C151.103 23.5528 150.753 22.9669 150.509 22.3344C150.034 21.2833 149.865 20.0152 149.391 18.9641C149.609 18.7604 149.854 18.5875 150.119 18.4504H150.119C150.158 18.4303 150.196 18.411 150.236 18.3927C150.423 18.3044 150.619 18.233 150.819 18.1794C150.933 18.1492 151.047 18.1245 151.162 18.1052C151.167 18.1048 151.172 18.1038 151.176 18.1025C151.711 18.0153 152.259 18.0587 152.774 18.2288C153.526 18.4834 154.161 18.9915 154.794 19.4722C155.821 20.1964 156.807 20.9783 157.746 21.8144C158.268 22.3143 158.744 22.8636 159.306 23.3178C159.772 23.6778 160.264 24.0036 160.777 24.2929C163.814 26.1022 166.852 27.9111 169.889 29.7197C170.918 30.3323 171.947 30.9448 172.952 31.5931C174.479 32.5783 175.952 33.6458 177.423 34.7125C178.29 35.3406 179.157 35.9691 180.023 36.5978C180.308 36.7791 180.557 37.0098 180.76 37.279C180.94 37.5846 181.051 37.9253 181.087 38.2779C181.305 39.7025 181.182 41.1583 180.729 42.5263Z" fill="#FBBEBE"/>
<path d="M154.198 32.0252C153.833 33.6596 152.182 34.6475 151.318 36.0832C150.245 37.865 150.683 39.9361 151.086 41.977C150.349 42.6115 149.613 43.246 148.876 43.8805C148.47 44.2294 148.063 44.58 147.625 44.8886C146.987 45.3162 146.32 45.6992 145.629 46.035C144.977 46.3701 144.326 46.7055 143.674 47.0412C143.068 47.382 142.425 47.6541 141.759 47.8524C140.475 48.1821 139.11 47.9513 137.839 47.5695C137.69 47.5302 137.545 47.4714 137.411 47.3946C137.332 47.3474 137.263 47.2848 137.208 47.2106C137.082 46.986 137.037 46.7255 137.079 46.4717C137.208 44.3328 137.73 42.2388 138.251 40.1604C138.53 38.9135 138.904 37.69 139.371 36.5007C139.829 35.4817 140.356 34.4949 140.947 33.547C141.6 32.3543 142.373 31.2317 143.254 30.1968C143.683 29.7984 144.045 29.3326 144.324 28.8179C144.649 28.0762 144.523 27.2256 144.589 26.418C144.64 25.8113 144.801 25.2189 145.064 24.6701V24.6692C145.206 24.3736 145.375 24.0927 145.572 23.8305C145.661 24.0375 145.749 24.2441 145.838 24.4504C145.897 24.5859 145.955 24.7211 146.012 24.856C146.087 25.03 146.162 25.2034 146.236 25.3761C146.449 25.8724 146.662 26.3683 146.875 26.864C147.105 27.4882 147.432 28.072 147.845 28.5935C148.034 28.8606 148.289 29.0741 148.585 29.2132C148.881 29.3524 149.208 29.4124 149.534 29.3874C149.86 29.3624 150.174 29.2532 150.445 29.0706C150.717 28.888 150.936 28.6381 151.082 28.3454C151.39 27.799 151.613 27.2091 151.743 26.5957C151.924 25.8488 151.949 25.0727 151.816 24.3158C151.596 22.8582 150.976 21.3694 150.525 20.0152C150.342 19.5637 150.236 19.0846 150.211 18.5978C150.212 18.5432 150.218 18.4886 150.228 18.4349C150.23 18.4211 150.233 18.4065 150.236 18.3928C150.423 18.3044 150.619 18.233 150.819 18.1794C150.933 18.1492 151.047 18.1245 151.162 18.1052C151.559 20.2514 151.956 22.3976 152.354 24.5438C152.363 24.5942 152.373 24.6445 152.382 24.6958C152.439 25.0034 152.496 25.3111 152.561 25.6178C152.618 25.8962 152.681 26.1736 152.75 26.4492L152.753 26.4574C152.777 26.5508 152.801 26.6433 152.827 26.7358L152.828 26.7385C152.898 26.9912 152.977 27.2421 153.066 27.4893C153.604 28.979 154.543 30.4788 154.198 32.0252Z" fill="#52CC6D"/>
<path d="M176.121 54.9932C176.104 55.308 176.165 55.6222 176.298 55.9078C176.637 56.5257 177.448 56.6662 178.15 56.724C182.25 57.0611 186.376 56.9354 190.448 56.3493C190.669 56.3342 190.884 56.2676 191.074 56.155C191.653 55.7491 191.296 54.7597 190.664 54.443C190.032 54.1263 189.282 54.2026 188.588 54.0655C187.899 53.892 187.242 53.6073 186.645 53.2227C185.238 52.4145 183.852 51.5718 182.486 50.6947C181.673 50.1725 180.713 49.6152 179.797 49.9248C177.316 50.764 176.105 52.3172 176.121 54.9932Z" fill="#3F3D56"/>
<path d="M145.893 24.1483V24.1492C145.887 24.1876 145.88 24.2252 145.872 24.2627C145.862 24.325 145.85 24.3881 145.838 24.4504C145.725 25.0318 145.585 25.6105 145.425 26.1855C144.986 27.774 144.397 29.337 143.813 30.877C142.245 35.0064 140.678 39.1361 139.109 43.2661C138.714 44.3063 138.319 45.3473 137.87 46.3664C137.719 46.7061 137.565 47.0485 137.411 47.3946C136.86 48.6334 136.331 49.9125 136.155 51.231C135.991 52.0987 135.972 52.9876 136.099 53.8615C136.275 54.7259 136.799 55.5701 137.621 55.8896C138.022 56.0462 138.596 56.2559 138.486 56.6725C138.426 56.9014 138.166 57.0131 137.933 57.0515C137.625 57.1006 137.309 57.0813 137.009 56.9949C136.709 56.9085 136.432 56.7572 136.197 56.5516C135.758 56.1625 135.421 55.5573 134.838 55.4922C134.434 55.4483 134.063 55.69 133.693 55.8594C132.184 56.5489 130.426 56.0663 128.841 55.5765C128.965 54.9346 129.61 54.5116 130.25 54.3834C130.89 54.2543 131.552 54.3459 132.205 54.3285C132.414 54.3397 132.621 54.2863 132.799 54.1756C132.958 54.0294 133.07 53.8386 133.119 53.6281C133.54 52.382 133.853 51.1022 134.054 49.8027C134.265 48.4448 134.353 47.0659 134.653 45.7245C134.887 44.678 135.247 43.6644 135.557 42.6371C136.155 40.5219 136.647 38.3779 137.029 36.2132C137.222 35.3139 137.361 34.4036 137.444 33.4874C137.496 32.7275 137.471 31.9639 137.545 31.2067C137.668 30.2215 137.873 29.2485 138.159 28.2978C138.439 27.2604 138.719 26.2236 138.999 25.1875C139.413 23.6538 139.858 22.0607 140.909 20.8685C141.275 20.4489 141.722 20.1086 142.224 19.8689C142.726 19.6292 143.272 19.4951 143.828 19.475C144.036 19.4747 144.244 19.4971 144.447 19.5418C144.481 19.5501 144.515 19.5583 144.549 19.5675C144.771 19.6255 144.984 19.7136 145.182 19.8293C145.506 19.6233 145.671 19.6956 145.886 20.0134C146.074 20.3496 146.163 20.7326 146.142 21.1176C146.16 22.1336 146.077 23.1488 145.893 24.1483Z" fill="#FBBEBE"/>
<path d="M146.249 25.3624L146.236 25.3761L146.162 25.4503L145.425 26.1855L145.065 24.6702L143.828 19.475C144.036 19.4747 144.244 19.4971 144.447 19.5418C144.456 19.4823 144.471 19.4238 144.491 19.3669L144.549 19.5675L144.968 20.994L145.762 23.7024L145.893 24.1483V24.1492L146.249 25.3624Z" fill="#52CC6D"/>
<path d="M150.92 8.78844C150.92 9.26949 150.824 9.7457 150.64 10.1899C150.455 10.634 150.184 11.0374 149.844 11.377C149.72 11.5005 149.588 11.6149 149.448 11.7192C148.816 12.1956 148.046 12.4534 147.255 12.4537H142.862C141.892 12.4522 140.961 12.0656 140.276 11.3787C139.59 10.6918 139.205 9.76087 139.205 8.79022C139.205 7.81958 139.59 6.88861 140.276 6.20174C140.961 5.51486 141.892 5.12822 142.862 5.12672H147.255C148.226 5.12925 149.156 5.51574 149.843 6.20179C150.529 6.88785 150.917 7.81774 150.92 8.78844Z" fill="#2F2E41"/>
<path d="M155.039 9.06452C157.112 9.06452 158.793 7.3838 158.793 5.31052C158.793 3.23725 157.112 1.55653 155.039 1.55653C152.966 1.55653 151.285 3.23725 151.285 5.31052C151.285 7.3838 152.966 9.06452 155.039 9.06452Z" fill="#2F2E41"/>
<path opacity="0.1" d="M154.947 1.55653C154.901 1.55653 154.856 1.55835 154.81 1.56C155.781 1.5953 156.701 2.0059 157.375 2.7054C158.05 3.4049 158.427 4.33877 158.427 5.31052C158.427 6.28227 158.05 7.21614 157.375 7.91564C156.701 8.61514 155.781 9.02574 154.81 9.06104C154.856 9.06269 154.901 9.06451 154.947 9.06451C155.943 9.06451 156.898 8.669 157.602 7.96499C158.306 7.26098 158.701 6.30614 158.701 5.31052C158.701 4.3149 158.306 3.36006 157.602 2.65605C156.898 1.95204 155.943 1.55653 154.947 1.55653Z" fill="black"/>
<path opacity="0.1" d="M137.093 1.55653C137.139 1.55653 137.185 1.55835 137.23 1.56C136.259 1.5953 135.34 2.0059 134.665 2.7054C133.991 3.4049 133.614 4.33877 133.614 5.31052C133.614 6.28227 133.991 7.21614 134.665 7.91564C135.34 8.61514 136.259 9.02574 137.23 9.06104C137.185 9.06269 137.139 9.06451 137.093 9.06451C136.098 9.06364 135.144 8.66774 134.441 7.96383C133.737 7.25991 133.342 6.30557 133.342 5.31052C133.342 4.31547 133.737 3.36113 134.441 2.65721C135.144 1.9533 136.098 1.5574 137.093 1.55653Z" fill="black"/>
<path opacity="0.1" d="M149.448 11.7193C148.816 12.1956 148.047 12.4534 147.255 12.4537H142.863C142.071 12.4534 141.302 12.1956 140.67 11.7193H149.448Z" fill="black"/>
<path d="M177.814 38.9204C177.814 38.9204 178.76 41.6473 179.627 40.9213L178.936 37.3568L177.814 38.9204Z" fill="#FBBEBE"/>
<path d="M292.978 122.081C293.859 122.401 294.803 122.513 295.735 122.406C296.667 122.3 297.561 121.978 298.347 121.467C299.134 120.956 299.791 120.269 300.266 119.461C300.742 118.652 301.023 117.744 301.088 116.809C301.153 115.873 301 114.935 300.641 114.069C300.281 113.203 299.726 112.432 299.018 111.817C298.309 111.202 297.468 110.76 296.56 110.525C295.652 110.291 294.702 110.271 293.784 110.466L293.936 113.583L292.461 110.912C291.014 111.592 289.896 112.819 289.352 114.323C289.159 114.85 289.042 115.401 289.004 115.961C288.911 117.275 289.248 118.583 289.965 119.687C290.683 120.791 291.74 121.632 292.978 122.081Z" fill="#57B894"/>
<path d="M300.275 158.233C299.755 155.582 302.01 153.232 304.239 151.705C306.467 150.177 309.07 148.676 309.831 146.084C310.923 142.358 307.669 138.946 305.135 136.004C303.256 133.82 301.642 131.422 300.327 128.858C299.8 127.83 299.316 126.756 299.177 125.609C298.978 123.958 299.508 122.314 300.043 120.739C301.823 115.491 303.727 110.287 305.754 105.128" stroke="#3F3D56" stroke-miterlimit="10"/>
<path d="M293.227 121.278C294.109 121.599 295.052 121.71 295.984 121.604C296.916 121.497 297.81 121.176 298.597 120.664C299.383 120.153 300.04 119.466 300.516 118.658C300.991 117.85 301.273 116.942 301.338 116.006C301.403 115.071 301.249 114.133 300.89 113.266C300.531 112.4 299.975 111.629 299.267 111.014C298.559 110.399 297.717 109.957 296.809 109.723C295.901 109.488 294.951 109.468 294.034 109.664L294.185 112.781L292.71 110.11C291.263 110.79 290.145 112.016 289.602 113.521C289.409 114.047 289.292 114.599 289.253 115.159C289.16 116.472 289.498 117.78 290.215 118.884C290.932 119.989 291.99 120.829 293.227 121.278V121.278Z" stroke="#3F3D56" stroke-miterlimit="10"/>
<path d="M299.535 104.051C299.881 103.097 300.462 102.245 301.223 101.574C301.985 100.903 302.903 100.434 303.894 100.211L304.393 103.174L305.317 100.062C306.6 100.081 307.845 100.508 308.87 101.28C309.896 102.052 310.649 103.13 311.022 104.359C311.394 105.587 311.367 106.902 310.944 108.114C310.52 109.326 309.723 110.372 308.666 111.101C307.609 111.83 306.348 112.204 305.065 112.17C303.782 112.136 302.543 111.694 301.527 110.91C300.511 110.125 299.77 109.038 299.412 107.805C299.054 106.573 299.097 105.258 299.535 104.051H299.535Z" fill="#57B894"/>
<path d="M299.868 102.981C300.214 102.027 300.795 101.175 301.556 100.504C302.318 99.8325 303.236 99.3639 304.227 99.141L304.726 102.104L305.65 98.9921C306.934 99.0111 308.178 99.4376 309.203 100.21C310.229 100.982 310.982 102.06 311.355 103.289C311.727 104.517 311.7 105.832 311.277 107.044C310.853 108.256 310.056 109.302 308.999 110.031C307.942 110.76 306.681 111.134 305.398 111.1C304.115 111.066 302.876 110.624 301.86 109.84C300.844 109.055 300.103 107.968 299.745 106.735C299.387 105.503 299.43 104.188 299.868 102.981H299.868Z" stroke="#3F3D56" stroke-miterlimit="10"/>
<path d="M304.073 136.064C305.471 136.571 307.006 136.546 308.387 135.994C309.767 135.441 310.897 134.4 311.559 133.069C312.221 131.737 312.371 130.209 311.978 128.774C311.586 127.34 310.68 126.1 309.432 125.291L308.722 127.683L308.218 124.684C308.213 124.682 308.208 124.68 308.203 124.679C307.455 124.407 306.661 124.285 305.866 124.32C305.072 124.355 304.292 124.547 303.571 124.884C302.85 125.22 302.203 125.696 301.666 126.283C301.129 126.87 300.713 127.557 300.442 128.305C300.17 129.053 300.049 129.847 300.085 130.642C300.12 131.436 300.312 132.216 300.649 132.937C300.987 133.657 301.463 134.304 302.05 134.841C302.637 135.377 303.325 135.793 304.073 136.064H304.073Z" fill="#57B894"/>
<path d="M304.36 134.98C305.758 135.487 307.294 135.462 308.674 134.91C310.055 134.357 311.184 133.316 311.846 131.985C312.509 130.654 312.658 129.125 312.266 127.691C311.874 126.256 310.967 125.016 309.72 124.207L309.009 126.599L308.506 123.601C308.501 123.598 308.496 123.596 308.49 123.595C307.743 123.323 306.949 123.201 306.154 123.236C305.359 123.272 304.579 123.463 303.858 123.8C303.138 124.137 302.49 124.612 301.953 125.199C301.416 125.786 301 126.473 300.729 127.221C300.458 127.969 300.337 128.763 300.372 129.558C300.408 130.352 300.6 131.132 300.937 131.853C301.274 132.573 301.75 133.221 302.337 133.757C302.925 134.294 303.612 134.709 304.36 134.98H304.36Z" stroke="#3F3D56" stroke-miterlimit="10"/>
<path d="M297.767 146.121C298.008 147.489 298.711 148.732 299.759 149.643C300.808 150.553 302.137 151.076 303.525 151.123C304.913 151.169 306.275 150.737 307.382 149.899C308.489 149.061 309.274 147.868 309.606 146.52C309.938 145.171 309.796 143.75 309.204 142.494C308.612 141.237 307.607 140.223 306.356 139.62C305.105 139.018 303.684 138.863 302.333 139.184C300.982 139.504 299.782 140.279 298.934 141.379L301.633 145.44L297.946 143.284C297.66 144.202 297.599 145.175 297.767 146.121Z" fill="#57B894"/>
<path d="M298.017 145.318C298.258 146.686 298.961 147.93 300.009 148.84C301.058 149.751 302.387 150.273 303.775 150.32C305.163 150.367 306.525 149.935 307.632 149.097C308.739 148.259 309.524 147.066 309.856 145.717C310.188 144.369 310.046 142.947 309.454 141.691C308.862 140.435 307.857 139.42 306.606 138.818C305.355 138.215 303.934 138.061 302.583 138.381C301.232 138.701 300.032 139.476 299.184 140.576L301.882 144.637L298.196 142.482C297.91 143.399 297.849 144.372 298.017 145.318V145.318Z" stroke="#3F3D56" stroke-miterlimit="10"/>
<path d="M2.62078 136.833C3.19992 137.044 3.82004 137.117 4.43228 137.047C5.04451 136.977 5.63211 136.766 6.14877 136.43C6.66544 136.094 7.09703 135.643 7.40955 135.112C7.72206 134.581 7.90694 133.984 7.94963 133.369C7.99231 132.755 7.89163 132.138 7.65552 131.569C7.41941 131 7.05433 130.494 6.58904 130.09C6.12375 129.685 5.57098 129.395 4.9743 129.241C4.37762 129.087 3.75334 129.074 3.15066 129.202L3.25025 131.25L2.28132 129.495C1.33038 129.942 0.59573 130.748 0.238826 131.736C0.112074 132.083 0.0350183 132.445 0.00995754 132.813C-0.0512017 133.676 0.170586 134.535 0.641712 135.26C1.11284 135.986 1.80762 136.538 2.62078 136.833Z" fill="#57B894"/>
<path d="M7.4151 160.586C7.07307 158.844 8.55516 157.3 10.0191 156.297C11.4831 155.293 13.1937 154.307 13.6932 152.604C14.4111 150.156 12.2727 147.914 10.6084 145.981C9.37358 144.546 8.3132 142.97 7.4494 141.286C7.07385 140.625 6.81807 139.902 6.69381 139.151C6.56258 138.066 6.91117 136.987 7.26236 135.952C8.43229 132.504 9.68314 129.085 11.0149 125.695" stroke="#3F3D56" stroke-miterlimit="10"/>
<path d="M2.78485 136.306C3.36399 136.517 3.98411 136.59 4.59634 136.52C5.20857 136.45 5.79617 136.239 6.31283 135.903C6.82949 135.567 7.26109 135.116 7.5736 134.584C7.88611 134.053 8.071 133.457 8.11368 132.842C8.15637 132.227 8.05569 131.611 7.81958 131.042C7.58347 130.473 7.21838 129.966 6.7531 129.562C6.28781 129.158 5.73504 128.868 5.13836 128.714C4.54168 128.56 3.9174 128.547 3.31473 128.675L3.41432 130.723L2.44539 128.968C1.49444 129.415 0.759793 130.221 0.402888 131.209C0.276138 131.555 0.199083 131.918 0.174021 132.285C0.112858 133.148 0.334645 134.008 0.805771 134.733C1.2769 135.459 1.97168 136.011 2.78485 136.306V136.306Z" stroke="#3F3D56" stroke-miterlimit="10"/>
<path d="M6.92902 124.988C7.1563 124.36 7.53775 123.801 8.03824 123.36C8.53872 122.919 9.14214 122.611 9.79288 122.464L10.1205 124.411L10.7279 122.367C11.5712 122.379 12.3887 122.659 13.0624 123.167C13.7361 123.674 14.2311 124.383 14.476 125.19C14.7208 125.997 14.7028 126.861 14.4246 127.657C14.1464 128.453 13.6224 129.14 12.9282 129.619C12.234 130.098 11.4055 130.344 10.5624 130.322C9.71931 130.299 8.90518 130.009 8.23759 129.494C7.57 128.978 7.08348 128.264 6.84827 127.454C6.61306 126.644 6.64134 125.78 6.92902 124.988Z" fill="#57B894"/>
<path d="M7.14777 124.285C7.37505 123.657 7.7565 123.098 8.25699 122.657C8.75747 122.216 9.36089 121.908 10.0116 121.761L10.3392 123.708L10.9466 121.664C11.7899 121.676 12.6075 121.956 13.2812 122.464C13.9549 122.971 14.4499 123.68 14.6947 124.487C14.9396 125.294 14.9216 126.158 14.6434 126.954C14.3652 127.75 13.8412 128.437 13.1469 128.916C12.4527 129.395 11.6243 129.641 10.7812 129.619C9.93805 129.596 9.12393 129.306 8.45634 128.791C7.78875 128.275 7.30222 127.561 7.06702 126.751C6.83181 125.941 6.86009 125.077 7.14777 124.285V124.285Z" stroke="#3F3D56" stroke-miterlimit="10"/>
<path d="M9.91043 146.02C10.8289 146.354 11.8378 146.337 12.7449 145.974C13.652 145.611 14.3939 144.927 14.8291 144.053C15.2642 143.178 15.3623 142.174 15.1047 141.231C14.847 140.289 14.2515 139.474 13.4318 138.942L12.9651 140.514L12.6341 138.544C12.6308 138.542 12.6275 138.541 12.624 138.54C12.1327 138.361 11.6111 138.281 11.0888 138.304C10.5666 138.327 10.054 138.453 9.58039 138.674C9.10678 138.896 8.6814 139.208 8.32858 139.594C7.97575 139.98 7.7024 140.431 7.52413 140.922C7.34587 141.414 7.26619 141.936 7.28965 142.458C7.31312 142.98 7.43926 143.492 7.66087 143.966C7.88248 144.439 8.19522 144.865 8.58121 145.217C8.9672 145.57 9.41888 145.843 9.91043 146.02Z" fill="#57B894"/>
<path d="M10.0994 145.308C11.0179 145.642 12.0268 145.625 12.9339 145.262C13.841 144.899 14.5829 144.215 15.0181 143.34C15.4532 142.466 15.5513 141.461 15.2936 140.519C15.036 139.577 14.4405 138.762 13.6208 138.23L13.1541 139.802L12.8231 137.832C12.8198 137.83 12.8165 137.829 12.813 137.828C12.3218 137.65 11.8004 137.57 11.2784 137.593C10.7564 137.617 10.2442 137.743 9.77089 137.964C8.81503 138.411 8.07587 139.219 7.71603 140.211C7.35619 141.203 7.40514 142.298 7.85211 143.253C8.29908 144.209 9.10747 144.949 10.0994 145.308V145.308Z" stroke="#3F3D56" stroke-miterlimit="10"/>
<path d="M5.76767 152.628C5.92559 153.527 6.38768 154.344 7.07644 154.942C7.7652 155.54 8.63875 155.884 9.55059 155.914C10.4624 155.945 11.3571 155.661 12.0845 155.111C12.812 154.56 13.328 153.776 13.546 152.89C13.764 152.004 13.6708 151.07 13.2819 150.245C12.8931 149.42 12.2323 148.753 11.4103 148.357C10.5884 147.961 9.65527 147.86 8.7675 148.07C7.87973 148.28 7.09129 148.79 6.5344 149.512L8.30715 152.181L5.88491 150.764C5.6971 151.367 5.65689 152.006 5.76767 152.628Z" fill="#57B894"/>
<path d="M5.93173 152.101C6.08965 152.999 6.55174 153.816 7.2405 154.415C7.92927 155.013 8.80282 155.356 9.71465 155.387C10.6265 155.418 11.5212 155.134 12.2486 154.583C12.9761 154.033 13.4921 153.249 13.7101 152.363C13.9281 151.477 13.8348 150.543 13.446 149.718C13.0572 148.892 12.3963 148.226 11.5744 147.83C10.7524 147.434 9.81933 147.332 8.93156 147.543C8.04379 147.753 7.25535 148.262 6.69846 148.985L8.47121 151.653L6.04897 150.237C5.86116 150.84 5.82095 151.479 5.93173 152.101V152.101Z" stroke="#3F3D56" stroke-miterlimit="10"/>
<path d="M139.946 99.2581C142.678 99.2581 144.893 96.392 144.893 92.8565C144.893 89.321 142.678 86.4549 139.946 86.4549C137.214 86.4549 135 89.321 135 92.8565C135 96.392 137.214 99.2581 139.946 99.2581Z" fill="#2F2E41"/>
<path d="M166.862 99.4036C169.594 99.4036 171.808 96.5375 171.808 93.002C171.808 89.4665 169.594 86.6004 166.862 86.6004C164.13 86.6004 161.915 89.4665 161.915 93.002C161.915 96.5375 164.13 99.4036 166.862 99.4036Z" fill="#2F2E41"/>
<path d="M163.079 111.916C163.079 114.808 159.041 117.153 154.059 117.153C149.077 117.153 145.039 114.808 145.039 111.916C145.039 109.41 148.068 107.315 152.115 106.803C152.76 106.718 153.409 106.676 154.059 106.678C155.148 106.675 156.234 106.792 157.298 107.027C160.679 107.781 163.079 109.687 163.079 111.916Z" fill="#2F2E41"/>
<path d="M141.11 97.8032C143.842 97.8032 146.057 94.9371 146.057 91.4016C146.057 87.8661 143.842 85 141.11 85C138.378 85 136.164 87.8661 136.164 91.4016C136.164 94.9371 138.378 97.8032 141.11 97.8032Z" stroke="#3F3D56" stroke-miterlimit="10"/>
<path d="M168.026 97.9486C170.758 97.9486 172.972 95.0826 172.972 91.5471C172.972 88.0116 170.758 85.1455 168.026 85.1455C165.294 85.1455 163.079 88.0116 163.079 91.5471C163.079 95.0826 165.294 97.9486 168.026 97.9486Z" stroke="#3F3D56" stroke-miterlimit="10"/>
<path d="M155.223 115.698C160.205 115.698 164.243 113.353 164.243 110.461C164.243 107.568 160.205 105.223 155.223 105.223C150.241 105.223 146.203 107.568 146.203 110.461C146.203 113.353 150.241 115.698 155.223 115.698Z" stroke="#3F3D56" stroke-miterlimit="10"/>
<path d="M157.405 107.464C157.408 107.83 157.27 108.183 157.021 108.451C156.903 108.579 156.761 108.682 156.601 108.752C156.442 108.823 156.27 108.86 156.096 108.86H153.186C152.827 108.848 152.488 108.694 152.243 108.432C151.998 108.171 151.866 107.822 151.877 107.464C151.875 107.18 151.958 106.902 152.115 106.666C152.759 106.575 153.409 106.531 154.059 106.533C155.149 106.529 156.236 106.654 157.298 106.905C157.369 107.083 157.406 107.272 157.405 107.464Z" fill="white"/>
<path d="M141.11 91.1106C141.914 91.1106 142.565 90.4592 142.565 89.6557C142.565 88.8522 141.914 88.2008 141.11 88.2008C140.307 88.2008 139.655 88.8522 139.655 89.6557C139.655 90.4592 140.307 91.1106 141.11 91.1106Z" fill="white"/>
<path d="M168.171 91.1106C168.975 91.1106 169.626 90.4592 169.626 89.6557C169.626 88.8522 168.975 88.2008 168.171 88.2008C167.368 88.2008 166.716 88.8522 166.716 89.6557C166.716 90.4592 167.368 91.1106 168.171 91.1106Z" fill="white"/>
<path opacity="0.3" d="M169.626 104.787C170.43 104.787 171.081 104.135 171.081 103.332C171.081 102.528 170.43 101.877 169.626 101.877C168.823 101.877 168.171 102.528 168.171 103.332C168.171 104.135 168.823 104.787 169.626 104.787Z" fill="#52CC6D"/>
<path opacity="0.3" d="M134.126 104.787C134.93 104.787 135.581 104.135 135.581 103.332C135.581 102.528 134.93 101.877 134.126 101.877C133.323 101.877 132.671 102.528 132.671 103.332C132.671 104.135 133.323 104.787 134.126 104.787Z" fill="#52CC6D"/>
</g>
<defs>
<clipPath id="clip0_317_463">
<rect width="312.627" height="170" fill="white"/>
</clipPath>
</defs>
</svg>
